<svg xmlns="http://www.w3.org/2000/svg" viewBox="0 0 1150 512">
  <!-- Nuvio full lockup: mark + nuvio wordmark (Montserrat ExtraBold, converted to paths - no font dependency). -->
  <defs>
    <linearGradient id="nuvioGrad" x1="0.55" y1="0" x2="0.3" y2="1">
      <stop offset="0" stop-color="#2BD9E5"/>
      <stop offset="0.55" stop-color="#4F6BF0"/>
      <stop offset="1" stop-color="#A238F0"/>
    </linearGradient>
  </defs>
  <path d="M 158 130 L 158 382 L 396 256 Z" fill="url(#nuvioGrad)" stroke="url(#nuvioGrad)" stroke-width="84" stroke-linejoin="round"/>
  <path d="M 212 204 L 212 308 L 314 256 Z" fill="#0A0A12" stroke="#0A0A12" stroke-width="38" stroke-linejoin="round"/>
  <path d="M 234 234 L 234 278 L 278 256 Z" fill="#FFFFFF" stroke="#FFFFFF" stroke-width="16" stroke-linejoin="round"/>
  <path transform="translate(495 329)" fill="#FFFFFF" d="M12.200000000000001 0.0V-108.4H48.400000000000006V-96.60000000000001Q52.800000000000004 -101.2 58.400000000000006 -104.4Q69.2 -110.2 82.80000000000001 -110.2Q95.4 -110.2 105.60000000000001 -105.1Q115.80000000000001 -100.0 121.70000000000002 -89.4Q127.60000000000001 -78.80000000000001 127.60000000000001 -62.0V0.0H89.60000000000001V-55.800000000000004Q89.60000000000001 -67.4 84.9 -72.7Q80.2 -78.0 71.8 -78.0Q65.8 -78.0 60.8 -75.30000000000001Q55.800000000000004 -72.60000000000001 53.0 -67.0Q50.2 -61.400000000000006 50.2 -52.400000000000006V0.0Z M205.00000000000003 1.8Q191.8 1.8 181.3 -3.4Q170.8 -8.6 164.90000000000003 -19.7Q159.00000000000003 -30.8 159.00000000000003 -47.800000000000004V-108.4H197.00000000000003V-54.0Q197.00000000000003 -41.400000000000006 201.70000000000005 -36.0Q206.40000000000003 -30.6 215.0 -30.6Q220.60000000000002 -30.6 225.20000000000002 -33.2Q229.8 -35.800000000000004 232.60000000000002 -41.5Q235.40000000000003 -47.2 235.40000000000003 -56.2V-108.4H273.40000000000003V0.0H237.20000000000002V-11.4Q233.20000000000002 -7.0 228.00000000000003 -4.2Q217.40000000000003 1.8 205.00000000000003 1.8Z M336.0 0.0 291.40000000000003 -108.4H330.40000000000003L356.40000000000003 -42.2L383.8 -108.4H420.0L375.20000000000005 0.0Z M437.8 0.0V-108.4H475.8V0.0ZM456.8 -120.4Q446.40000000000003 -120.4 440.0 -126.2Q433.6 -132.0 433.6 -140.6Q433.6 -149.20000000000002 440.0 -155.0Q446.40000000000003 -160.8 456.8 -160.8Q467.20000000000005 -160.8 473.6 -155.3Q480.0 -149.8 480.0 -141.20000000000002Q480.0 -132.20000000000002 473.70000000000005 -126.30000000000001Q467.40000000000003 -120.4 456.8 -120.4Z M562.8000000000001 1.8Q545.0 1.8 531.2 -5.4Q517.4000000000001 -12.600000000000001 509.50000000000006 -25.3Q501.6 -38.0 501.6 -54.400000000000006Q501.6 -70.8 509.50000000000006 -83.4Q517.4000000000001 -96.0 531.2 -103.1Q545.0 -110.2 562.8000000000001 -110.2Q580.6 -110.2 594.5 -103.1Q608.4000000000001 -96.0 616.2 -83.4Q624.0 -70.8 624.0 -54.400000000000006Q624.0 -38.0 616.2 -25.3Q608.4000000000001 -12.600000000000001 594.5 -5.4Q580.6 1.8 562.8000000000001 1.8ZM562.8000000000001 -28.400000000000002Q569.4000000000001 -28.400000000000002 574.5 -31.4Q579.6 -34.4 582.6 -40.3Q585.6 -46.2 585.6 -54.400000000000006Q585.6 -62.6 582.6 -68.3Q579.6 -74.0 574.5 -77.0Q569.4000000000001 -80.0 562.8000000000001 -80.0Q556.4000000000001 -80.0 551.3000000000001 -77.0Q546.2 -74.0 543.1 -68.3Q540.0 -62.6 540.0 -54.400000000000006Q540.0 -46.2 543.1 -40.3Q546.2 -34.4 551.3000000000001 -31.4Q556.4000000000001 -28.400000000000002 562.8000000000001 -28.400000000000002Z"/>
</svg>
